<?xml version="1.0" encoding="UTF-8" standalone="no"?>
<!DOCTYPE svg PUBLIC "-//W3C//DTD SVG 1.1//EN"
 "http://www.w3.org/Graphics/SVG/1.1/DTD/svg11.dtd">
<!-- Generated by graphviz version 2.43.0 (0)
 -->
<!-- Title: %3 Pages: 1 -->
<svg width="4151pt" height="476pt"
 viewBox="0.00 0.00 4150.75 476.00" xmlns="http://www.w3.org/2000/svg" xmlns:xlink="http://www.w3.org/1999/xlink">
<g id="graph0" class="graph" transform="scale(1 1) rotate(0) translate(4 472)">
<title>%3</title>
<polygon fill="white" stroke="transparent" points="-4,4 -4,-472 4146.75,-472 4146.75,4 -4,4"/>
<!-- [root] module.jmeter_server.aws_instance.this (expand) -->
<g id="node1" class="node">
<title>[root] module.jmeter_server.aws_instance.this (expand)</title>
<polygon fill="none" stroke="black" points="2012.87,-252 1710.87,-252 1710.87,-216 2012.87,-216 2012.87,-252"/>
<text text-anchor="middle" x="1861.87" y="-230.3" font-family="Times,serif" font-size="14.00">module.jmeter_server.aws_instance.this</text>
</g>
<!-- [root] module.jmeter_server.provider[&quot;registry.terraform.io/hashicorp/aws&quot;] -->
<g id="node2" class="node">
<title>[root] module.jmeter_server.provider[&quot;registry.terraform.io/hashicorp/aws&quot;]</title>
<polygon fill="none" stroke="black" points="3301.87,-180 2829.48,-162 3301.87,-144 3774.27,-162 3301.87,-180"/>
<text text-anchor="middle" x="3301.87" y="-158.3" font-family="Times,serif" font-size="14.00">module.jmeter_server.provider[&quot;registry.terraform.io/hashicorp/aws&quot;]</text>
</g>
<!-- [root] module.jmeter_server.aws_instance.this (expand)&#45;&gt;[root] module.jmeter_server.provider[&quot;registry.terraform.io/hashicorp/aws&quot;] -->
<g id="edge6" class="edge">
<title>[root] module.jmeter_server.aws_instance.this (expand)&#45;&gt;[root] module.jmeter_server.provider[&quot;registry.terraform.io/hashicorp/aws&quot;]</title>
<path fill="none" stroke="black" d="M2012.92,-225.66C2272.17,-213.06 2802.17,-187.29 3095.35,-173.04"/>
<polygon fill="black" stroke="black" points="3095.87,-176.52 3105.68,-172.54 3095.53,-169.53 3095.87,-176.52"/>
</g>
<!-- [root] module.jmeter_server.var.aws_ami (expand) -->
<g id="node24" class="node">
<title>[root] module.jmeter_server.var.aws_ami (expand)</title>
<ellipse fill="none" stroke="black" cx="3301.87" cy="-90" rx="243.16" ry="18"/>
<text text-anchor="middle" x="3301.87" y="-86.3" font-family="Times,serif" font-size="14.00">[root] module.jmeter_server.var.aws_ami (expand)</text>
</g>
<!-- [root] module.jmeter_server.aws_instance.this (expand)&#45;&gt;[root] module.jmeter_server.var.aws_ami (expand) -->
<g id="edge7" class="edge">
<title>[root] module.jmeter_server.aws_instance.this (expand)&#45;&gt;[root] module.jmeter_server.var.aws_ami (expand)</title>
<path fill="none" stroke="black" d="M2013.04,-231.62C2460.99,-227.17 3752.12,-211.61 3782.87,-180 3794.03,-168.53 3793.55,-155.92 3782.87,-144 3772.27,-132.16 3606.11,-115.8 3472.01,-104.4"/>
<polygon fill="black" stroke="black" points="3472.27,-100.91 3462.01,-103.55 3471.68,-107.88 3472.27,-100.91"/>
</g>
<!-- [root] module.jmeter_server.var.aws_instance_type (expand) -->
<g id="node25" class="node">
<title>[root] module.jmeter_server.var.aws_instance_type (expand)</title>
<ellipse fill="none" stroke="black" cx="3852.87" cy="-90" rx="289.75" ry="18"/>
<text text-anchor="middle" x="3852.87" y="-86.3" font-family="Times,serif" font-size="14.00">[root] module.jmeter_server.var.aws_instance_type (expand)</text>
</g>
<!-- [root] module.jmeter_server.aws_instance.this (expand)&#45;&gt;[root] module.jmeter_server.var.aws_instance_type (expand) -->
<g id="edge8" class="edge">
<title>[root] module.jmeter_server.aws_instance.this (expand)&#45;&gt;[root] module.jmeter_server.var.aws_instance_type (expand)</title>
<path fill="none" stroke="black" d="M2013.07,-232.86C2456.02,-231.92 3724.43,-225.27 3800.87,-180 3823.77,-166.44 3837.61,-138.62 3845.19,-117.66"/>
<polygon fill="black" stroke="black" points="3848.56,-118.62 3848.42,-108.03 3841.92,-116.39 3848.56,-118.62"/>
</g>
<!-- [root] module.jmeter_server.var.aws_key_name (expand) -->
<g id="node26" class="node">
<title>[root] module.jmeter_server.var.aws_key_name (expand)</title>
<ellipse fill="none" stroke="black" cx="918.87" cy="-90" rx="272.15" ry="18"/>
<text text-anchor="middle" x="918.87" y="-86.3" font-family="Times,serif" font-size="14.00">[root] module.jmeter_server.var.aws_key_name (expand)</text>
</g>
<!-- [root] module.jmeter_server.aws_instance.this (expand)&#45;&gt;[root] module.jmeter_server.var.aws_key_name (expand) -->
<g id="edge9" class="edge">
<title>[root] module.jmeter_server.aws_instance.this (expand)&#45;&gt;[root] module.jmeter_server.var.aws_key_name (expand)</title>
<path fill="none" stroke="black" d="M1710.51,-232.14C1471.06,-229.59 1025.65,-219.51 964.87,-180 943.42,-166.05 931.43,-138.74 925.11,-118.03"/>
<polygon fill="black" stroke="black" points="928.43,-116.89 922.38,-108.19 921.69,-118.76 928.43,-116.89"/>
</g>
<!-- [root] module.jmeter_server.var.jmeter_cmdrunner_version (expand) -->
<g id="node27" class="node">
<title>[root] module.jmeter_server.var.jmeter_cmdrunner_version (expand)</title>
<ellipse fill="none" stroke="black" cx="1537.87" cy="-90" rx="328.74" ry="18"/>
<text text-anchor="middle" x="1537.87" y="-86.3" font-family="Times,serif" font-size="14.00">[root] module.jmeter_server.var.jmeter_cmdrunner_version (expand)</text>
</g>
<!-- [root] module.jmeter_server.aws_instance.this (expand)&#45;&gt;[root] module.jmeter_server.var.jmeter_cmdrunner_version (expand) -->
<g id="edge10" class="edge">
<title>[root] module.jmeter_server.aws_instance.this (expand)&#45;&gt;[root] module.jmeter_server.var.jmeter_cmdrunner_version (expand)</title>
<path fill="none" stroke="black" d="M1710.51,-229.27C1464.24,-222.46 1001.59,-206.24 976.87,-180 965.9,-168.35 966.11,-155.83 976.87,-144 988.85,-130.84 1168.57,-115.51 1321.4,-104.73"/>
<polygon fill="black" stroke="black" points="1321.7,-108.22 1331.43,-104.03 1321.21,-101.24 1321.7,-108.22"/>
</g>
<!-- [root] module.jmeter_server.var.jmeter_home (expand) -->
<g id="node28" class="node">
<title>[root] module.jmeter_server.var.jmeter_home (expand)</title>
<ellipse fill="none" stroke="black" cx="1250.87" cy="-162" rx="264.55" ry="18"/>
<text text-anchor="middle" x="1250.87" y="-158.3" font-family="Times,serif" font-size="14.00">[root] module.jmeter_server.var.jmeter_home (expand)</text>
</g>
<!-- [root] module.jmeter_server.aws_instance.this (expand)&#45;&gt;[root] module.jmeter_server.var.jmeter_home (expand) -->
<g id="edge11" class="edge">
<title>[root] module.jmeter_server.aws_instance.this (expand)&#45;&gt;[root] module.jmeter_server.var.jmeter_home (expand)</title>
<path fill="none" stroke="black" d="M1713.19,-215.97C1614.59,-204.67 1486.1,-189.95 1389.61,-178.89"/>
<polygon fill="black" stroke="black" points="1389.82,-175.4 1379.49,-177.73 1389.02,-182.35 1389.82,-175.4"/>
</g>
<!-- [root] module.jmeter_server.var.jmeter_plugins (expand) -->
<g id="node29" class="node">
<title>[root] module.jmeter_server.var.jmeter_plugins (expand)</title>
<ellipse fill="none" stroke="black" cx="1806.87" cy="-162" rx="272.95" ry="18"/>
<text text-anchor="middle" x="1806.87" y="-158.3" font-family="Times,serif" font-size="14.00">[root] module.jmeter_server.var.jmeter_plugins (expand)</text>
</g>
<!-- [root] module.jmeter_server.aws_instance.this (expand)&#45;&gt;[root] module.jmeter_server.var.jmeter_plugins (expand) -->
<g id="edge12" class="edge">
<title>[root] module.jmeter_server.aws_instance.this (expand)&#45;&gt;[root] module.jmeter_server.var.jmeter_plugins (expand)</title>
<path fill="none" stroke="black" d="M1848.28,-215.7C1841.75,-207.39 1833.81,-197.28 1826.63,-188.14"/>
<polygon fill="black" stroke="black" points="1829.24,-185.81 1820.31,-180.1 1823.74,-190.13 1829.24,-185.81"/>
</g>
<!-- [root] module.jmeter_server.var.jmeter_plugins_manager_version (expand) -->
<g id="node30" class="node">
<title>[root] module.jmeter_server.var.jmeter_plugins_manager_version (expand)</title>
<ellipse fill="none" stroke="black" cx="2454.87" cy="-162" rx="356.64" ry="18"/>
<text text-anchor="middle" x="2454.87" y="-158.3" font-family="Times,serif" font-size="14.00">[root] module.jmeter_server.var.jmeter_plugins_manager_version (expand)</text>
</g>
<!-- [root] module.jmeter_server.aws_instance.this (expand)&#45;&gt;[root] module.jmeter_server.var.jmeter_plugins_manager_version (expand) -->
<g id="edge13" class="edge">
<title>[root] module.jmeter_server.aws_instance.this (expand)&#45;&gt;[root] module.jmeter_server.var.jmeter_plugins_manager_version (expand)</title>
<path fill="none" stroke="black" d="M2006.18,-215.97C2098.96,-205.01 2219.03,-190.84 2311.61,-179.91"/>
<polygon fill="black" stroke="black" points="2312.09,-183.38 2321.61,-178.73 2311.27,-176.43 2312.09,-183.38"/>
</g>
<!-- [root] module.jmeter_server.var.jmeter_version (expand) -->
<g id="node31" class="node">
<title>[root] module.jmeter_server.var.jmeter_version (expand)</title>
<ellipse fill="none" stroke="black" cx="618.87" cy="-162" rx="272.95" ry="18"/>
<text text-anchor="middle" x="618.87" y="-158.3" font-family="Times,serif" font-size="14.00">[root] module.jmeter_server.var.jmeter_version (expand)</text>
</g>
<!-- [root] module.jmeter_server.aws_instance.this (expand)&#45;&gt;[root] module.jmeter_server.var.jmeter_version (expand) -->
<g id="edge14" class="edge">
<title>[root] module.jmeter_server.aws_instance.this (expand)&#45;&gt;[root] module.jmeter_server.var.jmeter_version (expand)</title>
<path fill="none" stroke="black" d="M1710.78,-224.8C1522.33,-214.53 1190.28,-196.31 905.87,-180 879.36,-178.48 851.46,-176.86 823.91,-175.24"/>
<polygon fill="black" stroke="black" points="823.96,-171.74 813.78,-174.64 823.55,-178.72 823.96,-171.74"/>
</g>
<!-- [root] module.jmeter_server.var.aws_profile (expand) -->
<g id="node33" class="node">
<title>[root] module.jmeter_server.var.aws_profile (expand)</title>
<ellipse fill="none" stroke="black" cx="2254.87" cy="-90" rx="256.15" ry="18"/>
<text text-anchor="middle" x="2254.87" y="-86.3" font-family="Times,serif" font-size="14.00">[root] module.jmeter_server.var.aws_profile (expand)</text>
</g>
<!-- [root] module.jmeter_server.provider[&quot;registry.terraform.io/hashicorp/aws&quot;]&#45;&gt;[root] module.jmeter_server.var.aws_profile (expand) -->
<g id="edge21" class="edge">
<title>[root] module.jmeter_server.provider[&quot;registry.terraform.io/hashicorp/aws&quot;]&#45;&gt;[root] module.jmeter_server.var.aws_profile (expand)</title>
<path fill="none" stroke="black" d="M3139.72,-150.16C2951.78,-137.59 2642.52,-116.92 2443.86,-103.63"/>
<polygon fill="black" stroke="black" points="2443.81,-100.12 2433.6,-102.95 2443.34,-107.11 2443.81,-100.12"/>
</g>
<!-- [root] module.jmeter_server.var.aws_region (expand) -->
<g id="node34" class="node">
<title>[root] module.jmeter_server.var.aws_region (expand)</title>
<ellipse fill="none" stroke="black" cx="2784.87" cy="-90" rx="256.15" ry="18"/>
<text text-anchor="middle" x="2784.87" y="-86.3" font-family="Times,serif" font-size="14.00">[root] module.jmeter_server.var.aws_region (expand)</text>
</g>
<!-- [root] module.jmeter_server.provider[&quot;registry.terraform.io/hashicorp/aws&quot;]&#45;&gt;[root] module.jmeter_server.var.aws_region (expand) -->
<g id="edge22" class="edge">
<title>[root] module.jmeter_server.provider[&quot;registry.terraform.io/hashicorp/aws&quot;]&#45;&gt;[root] module.jmeter_server.var.aws_region (expand)</title>
<path fill="none" stroke="black" d="M3203.72,-147.71C3119.46,-136.3 2997.64,-119.81 2907.07,-107.55"/>
<polygon fill="black" stroke="black" points="2907.4,-104.06 2897.02,-106.18 2906.46,-110.99 2907.4,-104.06"/>
</g>
<!-- [root] output.arn -->
<g id="node3" class="node">
<title>[root] output.arn</title>
<polygon fill="none" stroke="black" points="1029.87,-396 943.87,-396 943.87,-360 1035.87,-360 1035.87,-390 1029.87,-396"/>
<polyline fill="none" stroke="black" points="1029.87,-396 1029.87,-390 "/>
<polyline fill="none" stroke="black" points="1035.87,-390 1029.87,-390 "/>
<text text-anchor="middle" x="989.87" y="-374.3" font-family="Times,serif" font-size="14.00">output.arn</text>
</g>
<!-- [root] module.jmeter_server.output.arn (expand) -->
<g id="node19" class="node">
<title>[root] module.jmeter_server.output.arn (expand)</title>
<ellipse fill="none" stroke="black" cx="1375.87" cy="-306" rx="235.86" ry="18"/>
<text text-anchor="middle" x="1375.87" y="-302.3" font-family="Times,serif" font-size="14.00">[root] module.jmeter_server.output.arn (expand)</text>
</g>
<!-- [root] output.arn&#45;&gt;[root] module.jmeter_server.output.arn (expand) -->
<g id="edge33" class="edge">
<title>[root] output.arn&#45;&gt;[root] module.jmeter_server.output.arn (expand)</title>
<path fill="none" stroke="black" d="M1035.96,-362.24C1038.96,-361.44 1041.95,-360.68 1044.87,-360 1111.44,-344.46 1186.61,-332.03 1248.47,-323.12"/>
<polygon fill="black" stroke="black" points="1249.27,-326.54 1258.67,-321.66 1248.28,-319.61 1249.27,-326.54"/>
</g>
<!-- [root] output.instance_state -->
<g id="node4" class="node">
<title>[root] output.instance_state</title>
<polygon fill="none" stroke="black" points="1586.37,-396 1421.37,-396 1421.37,-360 1592.37,-360 1592.37,-390 1586.37,-396"/>
<polyline fill="none" stroke="black" points="1586.37,-396 1586.37,-390 "/>
<polyline fill="none" stroke="black" points="1592.37,-390 1586.37,-390 "/>
<text text-anchor="middle" x="1506.87" y="-374.3" font-family="Times,serif" font-size="14.00">output.instance_state</text>
</g>
<!-- [root] module.jmeter_server.output.instance_state (expand) -->
<g id="node20" class="node">
<title>[root] module.jmeter_server.output.instance_state (expand)</title>
<ellipse fill="none" stroke="black" cx="1916.87" cy="-306" rx="287.05" ry="18"/>
<text text-anchor="middle" x="1916.87" y="-302.3" font-family="Times,serif" font-size="14.00">[root] module.jmeter_server.output.instance_state (expand)</text>
</g>
<!-- [root] output.instance_state&#45;&gt;[root] module.jmeter_server.output.instance_state (expand) -->
<g id="edge34" class="edge">
<title>[root] output.instance_state&#45;&gt;[root] module.jmeter_server.output.instance_state (expand)</title>
<path fill="none" stroke="black" d="M1592.57,-361.62C1595.71,-361.07 1598.82,-360.53 1601.87,-360 1671.23,-347.96 1749.25,-334.83 1810.29,-324.65"/>
<polygon fill="black" stroke="black" points="1811.04,-328.07 1820.33,-322.98 1809.89,-321.17 1811.04,-328.07"/>
</g>
<!-- [root] output.jmeter_version -->
<g id="node5" class="node">
<title>[root] output.jmeter_version</title>
<polygon fill="none" stroke="black" points="570.37,-396 401.37,-396 401.37,-360 576.37,-360 576.37,-390 570.37,-396"/>
<polyline fill="none" stroke="black" points="570.37,-396 570.37,-390 "/>
<polyline fill="none" stroke="black" points="576.37,-390 570.37,-390 "/>
<text text-anchor="middle" x="488.87" y="-374.3" font-family="Times,serif" font-size="14.00">output.jmeter_version</text>
</g>
<!-- [root] module.jmeter_server.output.jmeter_version (expand) -->
<g id="node21" class="node">
<title>[root] module.jmeter_server.output.jmeter_version (expand)</title>
<ellipse fill="none" stroke="black" cx="289.87" cy="-306" rx="289.75" ry="18"/>
<text text-anchor="middle" x="289.87" y="-302.3" font-family="Times,serif" font-size="14.00">[root] module.jmeter_server.output.jmeter_version (expand)</text>
</g>
<!-- [root] output.jmeter_version&#45;&gt;[root] module.jmeter_server.output.jmeter_version (expand) -->
<g id="edge35" class="edge">
<title>[root] output.jmeter_version&#45;&gt;[root] module.jmeter_server.output.jmeter_version (expand)</title>
<path fill="none" stroke="black" d="M440.45,-359.97C412.44,-350.11 377.02,-337.65 347.57,-327.29"/>
<polygon fill="black" stroke="black" points="348.42,-323.88 337.83,-323.87 346.1,-330.49 348.42,-323.88"/>
</g>
<!-- [root] output.private_ip -->
<g id="node6" class="node">
<title>[root] output.private_ip</title>
<polygon fill="none" stroke="black" points="3548.87,-396 3414.87,-396 3414.87,-360 3554.87,-360 3554.87,-390 3548.87,-396"/>
<polyline fill="none" stroke="black" points="3548.87,-396 3548.87,-390 "/>
<polyline fill="none" stroke="black" points="3554.87,-390 3548.87,-390 "/>
<text text-anchor="middle" x="3484.87" y="-374.3" font-family="Times,serif" font-size="14.00">output.private_ip</text>
</g>
<!-- [root] module.jmeter_server.output.private_ip (expand) -->
<g id="node22" class="node">
<title>[root] module.jmeter_server.output.private_ip (expand)</title>
<ellipse fill="none" stroke="black" cx="2488.87" cy="-306" rx="266.45" ry="18"/>
<text text-anchor="middle" x="2488.87" y="-302.3" font-family="Times,serif" font-size="14.00">[root] module.jmeter_server.output.private_ip (expand)</text>
</g>
<!-- [root] output.private_ip&#45;&gt;[root] module.jmeter_server.output.private_ip (expand) -->
<g id="edge36" class="edge">
<title>[root] output.private_ip&#45;&gt;[root] module.jmeter_server.output.private_ip (expand)</title>
<path fill="none" stroke="black" d="M3414.76,-361.33C3411.77,-360.84 3408.79,-360.4 3405.87,-360 3278.68,-342.74 2948.84,-326.23 2721.52,-316.35"/>
<polygon fill="black" stroke="black" points="2721.59,-312.85 2711.45,-315.92 2721.29,-319.85 2721.59,-312.85"/>
</g>
<!-- [root] output.public_ip -->
<g id="node7" class="node">
<title>[root] output.public_ip</title>
<polygon fill="none" stroke="black" points="919.87,-396 793.87,-396 793.87,-360 925.87,-360 925.87,-390 919.87,-396"/>
<polyline fill="none" stroke="black" points="919.87,-396 919.87,-390 "/>
<polyline fill="none" stroke="black" points="925.87,-390 919.87,-390 "/>
<text text-anchor="middle" x="859.87" y="-374.3" font-family="Times,serif" font-size="14.00">output.public_ip</text>
</g>
<!-- [root] module.jmeter_server.output.public_ip (expand) -->
<g id="node23" class="node">
<title>[root] module.jmeter_server.output.public_ip (expand)</title>
<ellipse fill="none" stroke="black" cx="859.87" cy="-306" rx="261.85" ry="18"/>
<text text-anchor="middle" x="859.87" y="-302.3" font-family="Times,serif" font-size="14.00">[root] module.jmeter_server.output.public_ip (expand)</text>
</g>
<!-- [root] output.public_ip&#45;&gt;[root] module.jmeter_server.output.public_ip (expand) -->
<g id="edge37" class="edge">
<title>[root] output.public_ip&#45;&gt;[root] module.jmeter_server.output.public_ip (expand)</title>
<path fill="none" stroke="black" d="M859.87,-359.7C859.87,-351.98 859.87,-342.71 859.87,-334.11"/>
<polygon fill="black" stroke="black" points="863.37,-334.1 859.87,-324.1 856.37,-334.1 863.37,-334.1"/>
</g>
<!-- [root] var.aws_ami -->
<g id="node8" class="node">
<title>[root] var.aws_ami</title>
<polygon fill="none" stroke="black" points="1708.87,-396 1610.87,-396 1610.87,-360 1714.87,-360 1714.87,-390 1708.87,-396"/>
<polyline fill="none" stroke="black" points="1708.87,-396 1708.87,-390 "/>
<polyline fill="none" stroke="black" points="1714.87,-390 1708.87,-390 "/>
<text text-anchor="middle" x="1662.87" y="-374.3" font-family="Times,serif" font-size="14.00">var.aws_ami</text>
</g>
<!-- [root] var.aws_instance_type -->
<g id="node9" class="node">
<title>[root] var.aws_instance_type</title>
<polygon fill="none" stroke="black" points="1902.87,-396 1732.87,-396 1732.87,-360 1908.87,-360 1908.87,-390 1902.87,-396"/>
<polyline fill="none" stroke="black" points="1902.87,-396 1902.87,-390 "/>
<polyline fill="none" stroke="black" points="1908.87,-390 1902.87,-390 "/>
<text text-anchor="middle" x="1820.87" y="-374.3" font-family="Times,serif" font-size="14.00">var.aws_instance_type</text>
</g>
<!-- [root] var.aws_key_name -->
<g id="node10" class="node">
<title>[root] var.aws_key_name</title>
<polygon fill="none" stroke="black" points="2068.87,-396 1926.87,-396 1926.87,-360 2074.87,-360 2074.87,-390 2068.87,-396"/>
<polyline fill="none" stroke="black" points="2068.87,-396 2068.87,-390 "/>
<polyline fill="none" stroke="black" points="2074.87,-390 2068.87,-390 "/>
<text text-anchor="middle" x="2000.87" y="-374.3" font-family="Times,serif" font-size="14.00">var.aws_key_name</text>
</g>
<!-- [root] var.aws_profile -->
<g id="node11" class="node">
<title>[root] var.aws_profile</title>
<polygon fill="none" stroke="black" points="2210.37,-396 2093.37,-396 2093.37,-360 2216.37,-360 2216.37,-390 2210.37,-396"/>
<polyline fill="none" stroke="black" points="2210.37,-396 2210.37,-390 "/>
<polyline fill="none" stroke="black" points="2216.37,-390 2210.37,-390 "/>
<text text-anchor="middle" x="2154.87" y="-374.3" font-family="Times,serif" font-size="14.00">var.aws_profile</text>
</g>
<!-- [root] var.aws_region -->
<g id="node12" class="node">
<title>[root] var.aws_region</title>
<polygon fill="none" stroke="black" points="2351.37,-396 2234.37,-396 2234.37,-360 2357.37,-360 2357.37,-390 2351.37,-396"/>
<polyline fill="none" stroke="black" points="2351.37,-396 2351.37,-390 "/>
<polyline fill="none" stroke="black" points="2357.37,-390 2351.37,-390 "/>
<text text-anchor="middle" x="2295.87" y="-374.3" font-family="Times,serif" font-size="14.00">var.aws_region</text>
</g>
<!-- [root] var.jmeter_cmdrunner_version -->
<g id="node13" class="node">
<title>[root] var.jmeter_cmdrunner_version</title>
<polygon fill="none" stroke="black" points="2604.37,-396 2375.37,-396 2375.37,-360 2610.37,-360 2610.37,-390 2604.37,-396"/>
<polyline fill="none" stroke="black" points="2604.37,-396 2604.37,-390 "/>
<polyline fill="none" stroke="black" points="2610.37,-390 2604.37,-390 "/>
<text text-anchor="middle" x="2492.87" y="-374.3" font-family="Times,serif" font-size="14.00">var.jmeter_cmdrunner_version</text>
</g>
<!-- [root] var.jmeter_home -->
<g id="node14" class="node">
<title>[root] var.jmeter_home</title>
<polygon fill="none" stroke="black" points="2758.87,-396 2628.87,-396 2628.87,-360 2764.87,-360 2764.87,-390 2758.87,-396"/>
<polyline fill="none" stroke="black" points="2758.87,-396 2758.87,-390 "/>
<polyline fill="none" stroke="black" points="2764.87,-390 2758.87,-390 "/>
<text text-anchor="middle" x="2696.87" y="-374.3" font-family="Times,serif" font-size="14.00">var.jmeter_home</text>
</g>
<!-- [root] var.jmeter_plugins -->
<g id="node15" class="node">
<title>[root] var.jmeter_plugins</title>
<polygon fill="none" stroke="black" points="2926.37,-396 2783.37,-396 2783.37,-360 2932.37,-360 2932.37,-390 2926.37,-396"/>
<polyline fill="none" stroke="black" points="2926.37,-396 2926.37,-390 "/>
<polyline fill="none" stroke="black" points="2932.37,-390 2926.37,-390 "/>
<text text-anchor="middle" x="2857.87" y="-374.3" font-family="Times,serif" font-size="14.00">var.jmeter_plugins</text>
</g>
<!-- [root] var.jmeter_plugins_manager_version -->
<g id="node16" class="node">
<title>[root] var.jmeter_plugins_manager_version</title>
<polygon fill="none" stroke="black" points="3222.87,-396 2950.87,-396 2950.87,-360 3228.87,-360 3228.87,-390 3222.87,-396"/>
<polyline fill="none" stroke="black" points="3222.87,-396 3222.87,-390 "/>
<polyline fill="none" stroke="black" points="3228.87,-390 3222.87,-390 "/>
<text text-anchor="middle" x="3089.87" y="-374.3" font-family="Times,serif" font-size="14.00">var.jmeter_plugins_manager_version</text>
</g>
<!-- [root] var.jmeter_version -->
<g id="node17" class="node">
<title>[root] var.jmeter_version</title>
<polygon fill="none" stroke="black" points="3390.37,-396 3247.37,-396 3247.37,-360 3396.37,-360 3396.37,-390 3390.37,-396"/>
<polyline fill="none" stroke="black" points="3390.37,-396 3390.37,-390 "/>
<polyline fill="none" stroke="black" points="3396.37,-390 3390.37,-390 "/>
<text text-anchor="middle" x="3321.87" y="-374.3" font-family="Times,serif" font-size="14.00">var.jmeter_version</text>
</g>
<!-- [root] module.jmeter_server (close) -->
<g id="node18" class="node">
<title>[root] module.jmeter_server (close)</title>
<ellipse fill="none" stroke="black" cx="1228.87" cy="-378" rx="174.67" ry="18"/>
<text text-anchor="middle" x="1228.87" y="-374.3" font-family="Times,serif" font-size="14.00">[root] module.jmeter_server (close)</text>
</g>
<!-- [root] module.jmeter_server (close)&#45;&gt;[root] module.jmeter_server.output.arn (expand) -->
<g id="edge1" class="edge">
<title>[root] module.jmeter_server (close)&#45;&gt;[root] module.jmeter_server.output.arn (expand)</title>
<path fill="none" stroke="black" d="M1264.08,-360.23C1284.21,-350.65 1309.65,-338.54 1331.17,-328.29"/>
<polygon fill="black" stroke="black" points="1332.92,-331.33 1340.44,-323.87 1329.91,-325.01 1332.92,-331.33"/>
</g>
<!-- [root] module.jmeter_server (close)&#45;&gt;[root] module.jmeter_server.output.instance_state (expand) -->
<g id="edge2" class="edge">
<title>[root] module.jmeter_server (close)&#45;&gt;[root] module.jmeter_server.output.instance_state (expand)</title>
<path fill="none" stroke="black" d="M1348.32,-364.85C1463.34,-353.14 1637.84,-335.39 1763.17,-322.64"/>
<polygon fill="black" stroke="black" points="1763.64,-326.11 1773.24,-321.61 1762.94,-319.14 1763.64,-326.11"/>
</g>
<!-- [root] module.jmeter_server (close)&#45;&gt;[root] module.jmeter_server.output.jmeter_version (expand) -->
<g id="edge3" class="edge">
<title>[root] module.jmeter_server (close)&#45;&gt;[root] module.jmeter_server.output.jmeter_version (expand)</title>
<path fill="none" stroke="black" d="M1105.19,-365.2C1085.04,-363.38 1064.38,-361.59 1044.87,-360 858.44,-344.85 645.89,-330.16 493.92,-320.1"/>
<polygon fill="black" stroke="black" points="493.75,-316.58 483.54,-319.42 493.28,-323.57 493.75,-316.58"/>
</g>
<!-- [root] module.jmeter_server (close)&#45;&gt;[root] module.jmeter_server.output.private_ip (expand) -->
<g id="edge4" class="edge">
<title>[root] module.jmeter_server (close)&#45;&gt;[root] module.jmeter_server.output.private_ip (expand)</title>
<path fill="none" stroke="black" d="M1349.89,-364.94C1370.55,-363.11 1391.82,-361.38 1411.87,-360 1767.39,-335.51 1857.02,-342.95 2212.87,-324 2238.59,-322.63 2265.65,-321.09 2292.36,-319.51"/>
<polygon fill="black" stroke="black" points="2292.8,-322.99 2302.58,-318.9 2292.39,-316 2292.8,-322.99"/>
</g>
<!-- [root] module.jmeter_server (close)&#45;&gt;[root] module.jmeter_server.output.public_ip (expand) -->
<g id="edge5" class="edge">
<title>[root] module.jmeter_server (close)&#45;&gt;[root] module.jmeter_server.output.public_ip (expand)</title>
<path fill="none" stroke="black" d="M1149.26,-361.9C1092.06,-351.05 1014.73,-336.38 954.39,-324.93"/>
<polygon fill="black" stroke="black" points="954.96,-321.47 944.48,-323.05 953.65,-328.35 954.96,-321.47"/>
</g>
<!-- [root] module.jmeter_server.output.arn (expand)&#45;&gt;[root] module.jmeter_server.aws_instance.this (expand) -->
<g id="edge15" class="edge">
<title>[root] module.jmeter_server.output.arn (expand)&#45;&gt;[root] module.jmeter_server.aws_instance.this (expand)</title>
<path fill="none" stroke="black" d="M1481.03,-289.85C1555.17,-279.18 1654.9,-264.81 1733.7,-253.46"/>
<polygon fill="black" stroke="black" points="1734.29,-256.91 1743.69,-252.02 1733.3,-249.98 1734.29,-256.91"/>
</g>
<!-- [root] module.jmeter_server.output.instance_state (expand)&#45;&gt;[root] module.jmeter_server.aws_instance.this (expand) -->
<g id="edge16" class="edge">
<title>[root] module.jmeter_server.output.instance_state (expand)&#45;&gt;[root] module.jmeter_server.aws_instance.this (expand)</title>
<path fill="none" stroke="black" d="M1903.28,-287.7C1896.75,-279.39 1888.81,-269.28 1881.63,-260.14"/>
<polygon fill="black" stroke="black" points="1884.24,-257.81 1875.31,-252.1 1878.74,-262.13 1884.24,-257.81"/>
</g>
<!-- [root] module.jmeter_server.output.jmeter_version (expand)&#45;&gt;[root] module.jmeter_server.var.jmeter_version (expand) -->
<g id="edge17" class="edge">
<title>[root] module.jmeter_server.output.jmeter_version (expand)&#45;&gt;[root] module.jmeter_server.var.jmeter_version (expand)</title>
<path fill="none" stroke="black" d="M328.91,-288.15C389.26,-262.11 505.08,-212.11 570.6,-183.83"/>
<polygon fill="black" stroke="black" points="572.1,-187 579.89,-179.82 569.32,-180.57 572.1,-187"/>
</g>
<!-- [root] module.jmeter_server.output.private_ip (expand)&#45;&gt;[root] module.jmeter_server.aws_instance.this (expand) -->
<g id="edge18" class="edge">
<title>[root] module.jmeter_server.output.private_ip (expand)&#45;&gt;[root] module.jmeter_server.aws_instance.this (expand)</title>
<path fill="none" stroke="black" d="M2357.43,-290.33C2260.03,-279.45 2126.74,-264.57 2022.93,-252.98"/>
<polygon fill="black" stroke="black" points="2023.31,-249.5 2012.98,-251.87 2022.53,-256.46 2023.31,-249.5"/>
</g>
<!-- [root] module.jmeter_server.output.public_ip (expand)&#45;&gt;[root] module.jmeter_server.aws_instance.this (expand) -->
<g id="edge19" class="edge">
<title>[root] module.jmeter_server.output.public_ip (expand)&#45;&gt;[root] module.jmeter_server.aws_instance.this (expand)</title>
<path fill="none" stroke="black" d="M1036.42,-292.67C1224.26,-279.54 1518.89,-258.96 1700.66,-246.26"/>
<polygon fill="black" stroke="black" points="1701.12,-249.74 1710.85,-245.55 1700.63,-242.76 1701.12,-249.74"/>
</g>
<!-- [root] module.jmeter_server (expand) -->
<g id="node35" class="node">
<title>[root] module.jmeter_server (expand)</title>
<ellipse fill="none" stroke="black" cx="1951.87" cy="-18" rx="184.67" ry="18"/>
<text text-anchor="middle" x="1951.87" y="-14.3" font-family="Times,serif" font-size="14.00">[root] module.jmeter_server (expand)</text>
</g>
<!-- [root] module.jmeter_server.var.aws_ami (expand)&#45;&gt;[root] module.jmeter_server (expand) -->
<g id="edge23" class="edge">
<title>[root] module.jmeter_server.var.aws_ami (expand)&#45;&gt;[root] module.jmeter_server (expand)</title>
<path fill="none" stroke="black" d="M3132.12,-77.1C3104.63,-75.3 3076.47,-73.54 3049.87,-72 2724.47,-53.17 2344.55,-35.88 2127.69,-26.45"/>
<polygon fill="black" stroke="black" points="2127.62,-22.94 2117.48,-26.01 2127.32,-29.94 2127.62,-22.94"/>
</g>
<!-- [root] module.jmeter_server.var.aws_instance_type (expand)&#45;&gt;[root] module.jmeter_server (expand) -->
<g id="edge24" class="edge">
<title>[root] module.jmeter_server.var.aws_instance_type (expand)&#45;&gt;[root] module.jmeter_server (expand)</title>
<path fill="none" stroke="black" d="M3652.67,-76.96C3619.67,-75.16 3585.82,-73.44 3553.87,-72 3041.58,-48.97 2436.7,-31.63 2138,-23.72"/>
<polygon fill="black" stroke="black" points="2138.03,-20.22 2127.94,-23.46 2137.84,-27.22 2138.03,-20.22"/>
</g>
<!-- [root] module.jmeter_server.var.aws_key_name (expand)&#45;&gt;[root] module.jmeter_server (expand) -->
<g id="edge25" class="edge">
<title>[root] module.jmeter_server.var.aws_key_name (expand)&#45;&gt;[root] module.jmeter_server (expand)</title>
<path fill="none" stroke="black" d="M1101.47,-76.63C1298.31,-63.29 1608.37,-42.28 1794.72,-29.65"/>
<polygon fill="black" stroke="black" points="1795.14,-33.13 1804.88,-28.96 1794.66,-26.15 1795.14,-33.13"/>
</g>
<!-- [root] module.jmeter_server.var.jmeter_cmdrunner_version (expand)&#45;&gt;[root] module.jmeter_server (expand) -->
<g id="edge28" class="edge">
<title>[root] module.jmeter_server.var.jmeter_cmdrunner_version (expand)&#45;&gt;[root] module.jmeter_server (expand)</title>
<path fill="none" stroke="black" d="M1633.89,-72.76C1699.9,-61.6 1787.27,-46.83 1853.73,-35.59"/>
<polygon fill="black" stroke="black" points="1854.51,-39.01 1863.79,-33.89 1853.35,-32.11 1854.51,-39.01"/>
</g>
<!-- [root] module.jmeter_server.var.jmeter_home (expand)&#45;&gt;[root] module.jmeter_server (expand) -->
<g id="edge29" class="edge">
<title>[root] module.jmeter_server.var.jmeter_home (expand)&#45;&gt;[root] module.jmeter_server (expand)</title>
<path fill="none" stroke="black" d="M1433.04,-148.94C1610.43,-136.68 1856.23,-118.09 1875.87,-108 1879.61,-106.08 1910.14,-69.61 1931.35,-43.96"/>
<polygon fill="black" stroke="black" points="1934.2,-46.01 1937.87,-36.07 1928.8,-41.55 1934.2,-46.01"/>
</g>
<!-- [root] module.jmeter_server.var.jmeter_plugins (expand)&#45;&gt;[root] module.jmeter_server (expand) -->
<g id="edge30" class="edge">
<title>[root] module.jmeter_server.var.jmeter_plugins (expand)&#45;&gt;[root] module.jmeter_server (expand)</title>
<path fill="none" stroke="black" d="M1853.9,-144.2C1872.79,-135.64 1893.65,-123.68 1908.87,-108 1925.8,-90.57 1937.15,-65.21 1943.92,-46.01"/>
<polygon fill="black" stroke="black" points="1947.31,-46.93 1947.14,-36.34 1940.66,-44.72 1947.31,-46.93"/>
</g>
<!-- [root] module.jmeter_server.var.jmeter_plugins_manager_version (expand)&#45;&gt;[root] module.jmeter_server (expand) -->
<g id="edge31" class="edge">
<title>[root] module.jmeter_server.var.jmeter_plugins_manager_version (expand)&#45;&gt;[root] module.jmeter_server (expand)</title>
<path fill="none" stroke="black" d="M2166.55,-151.39C2090.01,-143.78 2020.21,-130.61 1989.87,-108 1970.26,-93.38 1960.66,-66.6 1956.03,-46.22"/>
<polygon fill="black" stroke="black" points="1959.43,-45.36 1954.04,-36.24 1952.57,-46.73 1959.43,-45.36"/>
</g>
<!-- [root] module.jmeter_server.var.jmeter_version (expand)&#45;&gt;[root] module.jmeter_server (expand) -->
<g id="edge32" class="edge">
<title>[root] module.jmeter_server.var.jmeter_version (expand)&#45;&gt;[root] module.jmeter_server (expand)</title>
<path fill="none" stroke="black" d="M616.94,-143.84C615.68,-123.27 617.22,-89.41 637.87,-72 679.94,-36.54 1403.73,-24.43 1758.7,-20.61"/>
<polygon fill="black" stroke="black" points="1758.87,-24.11 1768.83,-20.51 1758.8,-17.11 1758.87,-24.11"/>
</g>
<!-- [root] module.jmeter_server.provider[&quot;registry.terraform.io/hashicorp/aws&quot;] (close) -->
<g id="node32" class="node">
<title>[root] module.jmeter_server.provider[&quot;registry.terraform.io/hashicorp/aws&quot;] (close)</title>
<ellipse fill="none" stroke="black" cx="3375.87" cy="-306" rx="395.63" ry="18"/>
<text text-anchor="middle" x="3375.87" y="-302.3" font-family="Times,serif" font-size="14.00">[root] module.jmeter_server.provider[&quot;registry.terraform.io/hashicorp/aws&quot;] (close)</text>
</g>
<!-- [root] module.jmeter_server.provider[&quot;registry.terraform.io/hashicorp/aws&quot;] (close)&#45;&gt;[root] module.jmeter_server.aws_instance.this (expand) -->
<g id="edge20" class="edge">
<title>[root] module.jmeter_server.provider[&quot;registry.terraform.io/hashicorp/aws&quot;] (close)&#45;&gt;[root] module.jmeter_server.aws_instance.this (expand)</title>
<path fill="none" stroke="black" d="M3109.12,-292.67C2794.85,-278.14 2282.75,-254.46 2023.37,-242.47"/>
<polygon fill="black" stroke="black" points="2023.26,-238.96 2013.11,-241.99 2022.94,-245.95 2023.26,-238.96"/>
</g>
<!-- [root] module.jmeter_server.var.aws_profile (expand)&#45;&gt;[root] module.jmeter_server (expand) -->
<g id="edge26" class="edge">
<title>[root] module.jmeter_server.var.aws_profile (expand)&#45;&gt;[root] module.jmeter_server (expand)</title>
<path fill="none" stroke="black" d="M2184.22,-72.68C2138.01,-62 2077.63,-48.05 2030,-37.05"/>
<polygon fill="black" stroke="black" points="2030.57,-33.59 2020.03,-34.75 2028.99,-40.41 2030.57,-33.59"/>
</g>
<!-- [root] module.jmeter_server.var.aws_region (expand)&#45;&gt;[root] module.jmeter_server (expand) -->
<g id="edge27" class="edge">
<title>[root] module.jmeter_server.var.aws_region (expand)&#45;&gt;[root] module.jmeter_server (expand)</title>
<path fill="none" stroke="black" d="M2627.21,-75.75C2474.48,-62.92 2244.81,-43.62 2096.62,-31.16"/>
<polygon fill="black" stroke="black" points="2096.79,-27.67 2086.53,-30.32 2096.2,-34.64 2096.79,-27.67"/>
</g>
<!-- [root] root -->
<g id="node36" class="node">
<title>[root] root</title>
<ellipse fill="none" stroke="black" cx="2154.87" cy="-450" rx="58.49" ry="18"/>
<text text-anchor="middle" x="2154.87" y="-446.3" font-family="Times,serif" font-size="14.00">[root] root</text>
</g>
<!-- [root] root&#45;&gt;[root] output.arn -->
<g id="edge40" class="edge">
<title>[root] root&#45;&gt;[root] output.arn</title>
<path fill="none" stroke="black" d="M2096.39,-448.15C1900.74,-445.01 1269.37,-432.37 1045.89,-395.84"/>
<polygon fill="black" stroke="black" points="1046.33,-392.37 1035.88,-394.14 1045.15,-399.27 1046.33,-392.37"/>
</g>
<!-- [root] root&#45;&gt;[root] output.instance_state -->
<g id="edge41" class="edge">
<title>[root] root&#45;&gt;[root] output.instance_state</title>
<path fill="none" stroke="black" d="M2098.18,-445.1C1999.59,-437.98 1790,-421.37 1602.57,-396.03"/>
<polygon fill="black" stroke="black" points="1602.91,-392.54 1592.53,-394.66 1601.96,-399.48 1602.91,-392.54"/>
</g>
<!-- [root] root&#45;&gt;[root] output.jmeter_version -->
<g id="edge42" class="edge">
<title>[root] root&#45;&gt;[root] output.jmeter_version</title>
<path fill="none" stroke="black" d="M2097.1,-447.15C1908.45,-441.03 1293.36,-420.44 784.87,-396 718.79,-392.82 644.45,-388.55 586.8,-385.08"/>
<polygon fill="black" stroke="black" points="586.79,-381.58 576.6,-384.47 586.37,-388.57 586.79,-381.58"/>
</g>
<!-- [root] root&#45;&gt;[root] output.private_ip -->
<g id="edge43" class="edge">
<title>[root] root&#45;&gt;[root] output.private_ip</title>
<path fill="none" stroke="black" d="M2213.11,-447.84C2424.3,-443.45 3150.34,-426.55 3404.48,-396.01"/>
<polygon fill="black" stroke="black" points="3405.28,-399.44 3414.77,-394.73 3404.41,-392.49 3405.28,-399.44"/>
</g>
<!-- [root] root&#45;&gt;[root] output.public_ip -->
<g id="edge44" class="edge">
<title>[root] root&#45;&gt;[root] output.public_ip</title>
<path fill="none" stroke="black" d="M2096.63,-447.86C1888.79,-443.56 1183.31,-427.1 936.03,-395.97"/>
<polygon fill="black" stroke="black" points="936.38,-392.49 926.01,-394.67 935.48,-399.43 936.38,-392.49"/>
</g>
<!-- [root] root&#45;&gt;[root] var.aws_ami -->
<g id="edge45" class="edge">
<title>[root] root&#45;&gt;[root] var.aws_ami</title>
<path fill="none" stroke="black" d="M2098.66,-444.79C2017.91,-438.14 1864.36,-423.29 1725,-396.06"/>
<polygon fill="black" stroke="black" points="1725.48,-392.59 1714.99,-394.08 1724.12,-399.45 1725.48,-392.59"/>
</g>
<!-- [root] root&#45;&gt;[root] var.aws_instance_type -->
<g id="edge46" class="edge">
<title>[root] root&#45;&gt;[root] var.aws_instance_type</title>
<path fill="none" stroke="black" d="M2108.08,-439.19C2057.47,-428.59 1975.52,-411.41 1912.08,-398.12"/>
<polygon fill="black" stroke="black" points="1912.57,-394.64 1902.07,-396.02 1911.14,-401.49 1912.57,-394.64"/>
</g>
<!-- [root] root&#45;&gt;[root] var.aws_key_name -->
<g id="edge47" class="edge">
<title>[root] root&#45;&gt;[root] var.aws_key_name</title>
<path fill="none" stroke="black" d="M2123.34,-434.67C2101.49,-424.73 2072.03,-411.35 2047.49,-400.19"/>
<polygon fill="black" stroke="black" points="2048.9,-396.98 2038.34,-396.03 2046,-403.36 2048.9,-396.98"/>
</g>
<!-- [root] root&#45;&gt;[root] var.aws_profile -->
<g id="edge48" class="edge">
<title>[root] root&#45;&gt;[root] var.aws_profile</title>
<path fill="none" stroke="black" d="M2154.87,-431.7C2154.87,-423.98 2154.87,-414.71 2154.87,-406.11"/>
<polygon fill="black" stroke="black" points="2158.37,-406.1 2154.87,-396.1 2151.37,-406.1 2158.37,-406.1"/>
</g>
<!-- [root] root&#45;&gt;[root] var.aws_region -->
<g id="edge49" class="edge">
<title>[root] root&#45;&gt;[root] var.aws_region</title>
<path fill="none" stroke="black" d="M2184.43,-434.33C2204.08,-424.57 2230.21,-411.6 2252.23,-400.67"/>
<polygon fill="black" stroke="black" points="2253.99,-403.7 2261.39,-396.12 2250.87,-397.43 2253.99,-403.7"/>
</g>
<!-- [root] root&#45;&gt;[root] var.jmeter_cmdrunner_version -->
<g id="edge50" class="edge">
<title>[root] root&#45;&gt;[root] var.jmeter_cmdrunner_version</title>
<path fill="none" stroke="black" d="M2201.87,-439.27C2253.01,-428.68 2336.06,-411.48 2400.37,-398.16"/>
<polygon fill="black" stroke="black" points="2401.45,-401.51 2410.53,-396.05 2400.03,-394.65 2401.45,-401.51"/>
</g>
<!-- [root] root&#45;&gt;[root] var.jmeter_home -->
<g id="edge51" class="edge">
<title>[root] root&#45;&gt;[root] var.jmeter_home</title>
<path fill="none" stroke="black" d="M2210.61,-444.53C2296.26,-437.25 2465.54,-421.22 2618.46,-396.14"/>
<polygon fill="black" stroke="black" points="2619.22,-399.57 2628.51,-394.48 2618.07,-392.66 2619.22,-399.57"/>
</g>
<!-- [root] root&#45;&gt;[root] var.jmeter_plugins -->
<g id="edge52" class="edge">
<title>[root] root&#45;&gt;[root] var.jmeter_plugins</title>
<path fill="none" stroke="black" d="M2212.3,-446.28C2320.2,-440.69 2560.68,-425.97 2773.2,-395.99"/>
<polygon fill="black" stroke="black" points="2773.89,-399.43 2783.3,-394.55 2772.9,-392.5 2773.89,-399.43"/>
</g>
<!-- [root] root&#45;&gt;[root] var.jmeter_plugins_manager_version -->
<g id="edge53" class="edge">
<title>[root] root&#45;&gt;[root] var.jmeter_plugins_manager_version</title>
<path fill="none" stroke="black" d="M2212.22,-446.07C2340.61,-439.3 2661.17,-421.28 2940.51,-396.1"/>
<polygon fill="black" stroke="black" points="2941.21,-399.55 2950.85,-395.16 2940.57,-392.58 2941.21,-399.55"/>
</g>
<!-- [root] root&#45;&gt;[root] var.jmeter_version -->
<g id="edge54" class="edge">
<title>[root] root&#45;&gt;[root] var.jmeter_version</title>
<path fill="none" stroke="black" d="M2213.55,-449.23C2375.3,-449.2 2841.29,-444.65 3237.38,-395.93"/>
<polygon fill="black" stroke="black" points="3237.82,-399.4 3247.32,-394.7 3236.96,-392.45 3237.82,-399.4"/>
</g>
<!-- [root] root&#45;&gt;[root] module.jmeter_server (close) -->
<g id="edge38" class="edge">
<title>[root] root&#45;&gt;[root] module.jmeter_server (close)</title>
<path fill="none" stroke="black" d="M2097.98,-445.36C1973.52,-437.3 1667.72,-417.01 1411.87,-396 1395.81,-394.68 1378.96,-393.22 1362.26,-391.73"/>
<polygon fill="black" stroke="black" points="1362.16,-388.2 1351.89,-390.79 1361.53,-395.18 1362.16,-388.2"/>
</g>
<!-- [root] root&#45;&gt;[root] module.jmeter_server.provider[&quot;registry.terraform.io/hashicorp/aws&quot;] (close) -->
<g id="edge39" class="edge">
<title>[root] root&#45;&gt;[root] module.jmeter_server.provider[&quot;registry.terraform.io/hashicorp/aws&quot;] (close)</title>
<path fill="none" stroke="black" d="M2213.62,-449.04C2474.39,-448.92 3516.35,-445.34 3563.87,-396 3596.55,-362.07 3547.11,-339.61 3490.75,-325.74"/>
<polygon fill="black" stroke="black" points="3491.45,-322.31 3480.92,-323.42 3489.84,-329.12 3491.45,-322.31"/>
</g>
</g>
</svg>
